<?xml version="1.0" standalone="no"?>
<!DOCTYPE svg PUBLIC "-//W3C//DTD SVG 20010904//EN"
 "http://www.w3.org/TR/2001/REC-SVG-20010904/DTD/svg10.dtd">
<svg version="1.0" xmlns="http://www.w3.org/2000/svg"
 width="180.000000pt" height="108.000000pt" viewBox="0 0 180.000000 108.000000"
 preserveAspectRatio="xMidYMid meet">
<metadata>
Created by potrace 1.16, written by Peter Selinger 2001-2019
</metadata>
<g transform="translate(0.000000,108.000000) scale(0.100000,-0.100000)"
fill="#000000" stroke="none">
<path d="M882 1038 c-7 -7 -12 -29 -12 -50 l0 -38 -74 0 c-86 0 -86 0 -86
-101 0 -65 2 -70 26 -79 14 -6 50 -10 80 -10 l54 0 0 -39 c0 -40 19 -59 43
-44 47 27 207 170 205 183 -3 14 -204 190 -218 190 -3 0 -11 -5 -18 -12z"/>
<path d="M315 871 c-108 -49 -157 -160 -120 -270 22 -66 86 -124 155 -141 175
-42 328 150 246 309 -36 69 -119 121 -196 121 -25 0 -63 -9 -85 -19z"/>
<path d="M1299 862 c-133 -69 -158 -238 -49 -343 188 -182 474 56 329 274 -61
93 -179 122 -280 69z"/>
<path d="M129 460 c-54 -57 -89 -134 -100 -222 -16 -130 14 -199 96 -218 52
-12 498 -12 550 0 82 19 112 88 96 218 -11 88 -46 165 -100 222 l-41 44 -33
-31 c-59 -56 -113 -78 -197 -78 -84 0 -138 22 -197 78 l-33 31 -41 -44z"/>
<path d="M1129 460 c-54 -57 -89 -134 -100 -222 -16 -130 14 -199 96 -218 52
-12 498 -12 550 0 82 19 112 88 96 218 -11 88 -46 165 -100 222 l-41 44 -33
-31 c-59 -56 -113 -78 -197 -78 -84 0 -138 22 -197 78 l-33 31 -41 -44z"/>
</g>
</svg>
